# xmcd
#
# Track frame offsets: 
#        150
#        32381
#        46552
#        79194
#        103621
#        141543
#        162102
#        193417
#        229234
#        252803
#
# Disc length: 3711 seconds
#
# Revision: 0
# Processed by: cddbd v1.5.2PL0 Copyright (c) Steve Scherf et al.
# Submitted via: ExactAudioCopy v1.0b4
#
DISCID=7d0e7d0a
DTITLE=Omar Coleman - Live! at Rosa's Lounge
DYEAR=2016
DGENRE=Blues
TTITLE0=Snatch It Back And Hold It – Wall To Wall (Live)
TTITLE1=I'm Ready (Live)
TTITLE2=Born And Raised (Live)
TTITLE3=Slow Down Baby (Live)
TTITLE4=Sit Down Baby – Jody's Got Your Girl And Gone (Live)
TTITLE5=Raspberry Wine (Live)
TTITLE6=Lucky Man (Live)
TTITLE7=One Request (Live)
TTITLE8=Give Me The Green Light (Live)
TTITLE9=Two Headed Woman (Live)
EXTD=
EXTT0=
EXTT1=
EXTT2=
EXTT3=
EXTT4=
EXTT5=
EXTT6=
EXTT7=
EXTT8=
EXTT9=
PLAYORDER=
